<svg width="221" height="36" viewBox="0 0 221 36" fill="none" xmlns="http://www.w3.org/2000/svg">
<path fill-rule="evenodd" clip-rule="evenodd" d="M16.4951 0.881605C17.6706 -0.293868 19.5765 -0.293868 20.752 0.881605L35.1182 15.2478C36.2936 16.4233 36.2936 18.3292 35.1182 19.5047L18.623 35.9998L12.9512 30.3279L23.1182 20.1609C24.0717 19.2074 24.5489 18.7302 24.7275 18.1804C24.8845 17.6969 24.8846 17.1756 24.7275 16.6922C24.5488 16.1425 24.0715 15.666 23.1182 14.7127L12.8906 4.48512L16.4951 0.881605ZM26.9131 16.989C26.6782 17.224 26.6783 17.6055 26.9131 17.8406L30.2871 21.2136L33.2354 18.2664C33.7054 17.7962 33.7054 17.0334 33.2354 16.5632L30.2871 13.616L26.9131 16.989Z" fill="#274CFF"/>
<path fill-rule="evenodd" clip-rule="evenodd" d="M57.7061 12.364C59.1918 12.3641 60.4252 12.6723 61.4053 13.2888C62.3851 13.9063 63.1712 14.691 63.7637 15.6443C64.3559 16.5976 64.7657 17.6373 64.9912 18.7634C65.2178 19.8897 65.3094 20.9619 65.2656 21.9793H52.7617C52.74 22.7156 52.8267 23.4145 53.0205 24.075C53.2143 24.7353 53.5259 25.3204 53.957 25.8289C54.3876 26.3374 54.9376 26.7439 55.6055 27.0466C56.2724 27.3505 57.0596 27.5017 57.9639 27.5017C59.1268 27.5017 60.0799 27.2307 60.8232 26.6892C61.5668 26.1476 62.0563 25.3247 62.2939 24.2195H65.0088C64.6421 26.1032 63.8343 27.522 62.585 28.4744L62.5859 28.4754C61.3366 29.4288 59.7637 29.905 57.8682 29.905C56.5326 29.905 55.3752 29.6874 54.3955 29.2547C53.4152 28.822 52.5908 28.2157 51.9229 27.4363C51.255 26.6569 50.7539 25.7256 50.4199 24.6423C50.086 23.5602 49.8974 22.3794 49.8545 21.1013C49.8545 19.8244 50.0479 18.6538 50.4355 17.5925C50.8232 16.5314 51.3677 15.6113 52.0684 14.8318C52.7679 14.0525 53.5967 13.4462 54.5557 13.0134C55.5138 12.5808 56.5649 12.364 57.7061 12.364ZM57.5459 14.7976C56.8564 14.7976 56.1944 14.9229 55.624 15.1716C55.0533 15.4205 54.5616 15.7624 54.1533 16.1951C53.7438 16.6287 53.421 17.1324 53.1846 17.7058C52.947 18.2794 52.8075 18.8922 52.7637 19.5418H62.3604C62.3166 18.8922 62.1713 18.2748 61.9238 17.6902C61.6763 17.1056 61.3423 16.6012 60.9219 16.1785C60.5016 15.756 60.0067 15.4214 59.4365 15.1716C58.865 14.9228 58.2357 14.7976 57.5459 14.7976Z" fill="#274CFF"/>
<path fill-rule="evenodd" clip-rule="evenodd" d="M74.5713 12.364C76.0571 12.3641 77.2905 12.6723 78.2705 13.2888C79.2506 13.9064 80.0367 14.691 80.6289 15.6443C81.2214 16.5976 81.6309 17.6373 81.8564 18.7634C82.083 19.8897 82.1746 20.9619 82.1309 21.9793H69.627C69.6052 22.7156 69.6919 23.4145 69.8857 24.075C70.0796 24.7353 70.3909 25.3204 70.8223 25.8289C71.2528 26.3374 71.8028 26.7439 72.4707 27.0466C73.1375 27.3505 73.9248 27.5017 74.8291 27.5017C75.9918 27.5017 76.9452 27.2307 77.6885 26.6892C78.4321 26.1476 78.9216 25.3247 79.1592 24.2195H81.874C81.5073 26.1032 80.6995 27.522 79.4502 28.4744L79.4512 28.4754C78.2017 29.4287 76.6297 29.905 74.7344 29.905C73.3985 29.905 72.2399 29.6875 71.2598 29.2547C70.2798 28.822 69.4559 28.2156 68.7881 27.4363C68.1202 26.6569 67.6191 25.7256 67.2852 24.6423C66.9512 23.5602 66.7626 22.3794 66.7197 21.1013C66.7198 19.8244 66.9132 18.6538 67.3008 17.5925C67.6884 16.5314 68.2329 15.6113 68.9336 14.8318C69.6331 14.0525 70.4619 13.4462 71.4209 13.0134C72.379 12.5808 73.4301 12.364 74.5713 12.364ZM74.4111 14.7976C73.7214 14.7976 73.059 14.9228 72.4883 15.1716C71.9179 15.4205 71.427 15.7625 71.0186 16.1951C70.6092 16.6287 70.2863 17.1323 70.0498 17.7058C69.8122 18.2794 69.6727 18.8922 69.6289 19.5418H79.2256C79.1818 18.8922 79.0365 18.2748 78.7891 17.6902C78.5416 17.1056 78.2075 16.6012 77.7871 16.1785C77.3669 15.756 76.8719 15.4214 76.3018 15.1716C75.7303 14.9228 75.101 14.7976 74.4111 14.7976Z" fill="#274CFF"/>
<path fill-rule="evenodd" clip-rule="evenodd" d="M99.418 29.5466H96.6719V27.2742H96.6074C96.1551 28.2055 95.4447 28.8771 94.4756 29.2879C93.5065 29.6983 92.4402 29.905 91.2773 29.905C89.9853 29.905 88.8587 29.6669 87.9004 29.1912C86.9415 28.7155 86.1446 28.0756 85.5098 27.2742C84.8744 26.4727 84.3953 25.5414 84.0713 24.4802C83.7483 23.4188 83.5859 22.2926 83.5859 21.1013C83.586 19.9102 83.7415 18.7837 84.0537 17.7224C84.3659 16.6613 84.8406 15.7364 85.4756 14.9461C86.1107 14.1555 86.908 13.528 87.8672 13.0623C88.8253 12.5966 89.9406 12.3631 91.2119 12.3631C91.6421 12.3631 92.1058 12.407 92.6016 12.4929C93.0964 12.5799 93.591 12.7266 94.0869 12.9324C94.5817 13.1383 95.0509 13.4092 95.4922 13.7449C95.9335 14.0806 96.3053 14.4972 96.6064 14.9959H96.6709V6.35231H99.418V29.5466ZM91.502 14.7986C90.5548 14.7986 89.7896 14.9826 89.1436 15.3513C88.4977 15.72 87.9804 16.2068 87.5928 16.8132C87.2051 17.4198 86.9247 18.1129 86.7529 18.8923C86.5798 19.6717 86.4941 20.4733 86.4941 21.2966C86.4942 22.076 86.597 22.8393 86.8018 23.5867C87.0063 24.3343 87.3179 25.0002 87.7383 25.5847C88.1586 26.1691 88.6968 26.6344 89.3535 26.9812C90.0104 27.328 90.7803 27.5007 91.6641 27.5007C92.5474 27.5007 93.3764 27.3178 94.0225 26.949C94.6683 26.5815 95.1959 26.0992 95.6055 25.5027C96.014 24.9072 96.3113 24.2301 96.4941 23.4714C96.6769 22.7143 96.7685 21.9451 96.7686 21.1658C96.7686 20.3434 96.6714 19.5466 96.4775 18.7781C96.2838 18.0097 95.9768 17.3323 95.5576 16.7478C95.137 16.1632 94.5927 15.6925 93.9248 15.3347C93.257 14.9771 92.4491 14.7986 91.502 14.7986Z" fill="#274CFF"/>
<path fill-rule="evenodd" clip-rule="evenodd" d="M110.371 12.3621C111.685 12.3621 112.875 12.5901 113.877 13.0447C114.879 13.4994 115.724 14.1224 116.414 14.9129C117.103 15.7033 117.62 16.6347 117.965 17.7068C118.308 18.7789 118.481 19.9326 118.481 21.1668C118.481 22.4008 118.308 23.5491 117.965 24.6101C117.62 25.6715 117.103 26.5969 116.414 27.3875C115.724 28.1778 114.879 28.7952 113.877 29.239C112.875 29.6828 111.706 29.9041 110.371 29.9041C109.036 29.904 107.895 29.6827 106.882 29.239C105.869 28.7953 105.018 28.1778 104.329 27.3875C103.639 26.5969 103.122 25.6715 102.778 24.6101C102.433 23.5491 102.262 22.4008 102.262 21.1668C102.262 19.9326 102.433 18.7789 102.778 17.7068C103.122 16.6346 103.64 15.7044 104.329 14.9129C105.018 14.1224 105.869 13.4994 106.882 13.0447C107.893 12.5901 109.057 12.3621 110.371 12.3621ZM110.371 14.7996C109.66 14.7996 108.987 14.9406 108.352 15.2224C107.716 15.5042 107.161 15.9162 106.688 16.4568C106.214 16.9983 105.842 17.6636 105.573 18.4539C105.304 19.2443 105.17 20.1495 105.17 21.1668C105.17 22.1839 105.304 23.0893 105.573 23.8787C105.843 24.6689 106.215 25.3297 106.688 25.8601C107.161 26.3908 107.716 26.798 108.352 27.0789C108.987 27.3606 109.66 27.5007 110.371 27.5007C111.082 27.5007 111.756 27.3606 112.392 27.0789C113.027 26.798 113.581 26.3907 114.055 25.8601C114.528 25.3297 114.899 24.6689 115.169 23.8787C115.438 23.0883 115.573 22.1839 115.573 21.1668C115.573 20.1495 115.437 19.2443 115.169 18.4539C114.899 17.6635 114.528 16.9983 114.055 16.4568C113.581 15.9163 113.027 15.5042 112.392 15.2224C111.756 14.9416 111.082 14.7996 110.371 14.7996Z" fill="#274CFF"/>
<path fill-rule="evenodd" clip-rule="evenodd" d="M145.914 12.3621C147.227 12.3621 148.418 12.5901 149.419 13.0447C150.421 13.4994 151.267 14.1224 151.956 14.9129C152.645 15.7033 153.161 16.6347 153.506 17.7068C153.85 18.779 154.024 19.9326 154.024 21.1668C154.024 22.4008 153.85 23.5491 153.506 24.6101C153.161 25.6714 152.645 26.597 151.956 27.3875C151.267 28.1778 150.421 28.7952 149.419 29.239C148.418 29.6827 147.248 29.9041 145.914 29.9041C144.579 29.904 143.438 29.6827 142.425 29.239C141.411 28.7953 140.561 28.1777 139.872 27.3875C139.182 26.5969 138.664 25.6715 138.321 24.6101C137.975 23.5491 137.805 22.4008 137.805 21.1668C137.805 19.9326 137.975 18.7789 138.321 17.7068C138.664 16.6345 139.183 15.7044 139.872 14.9129C140.561 14.1224 141.411 13.4994 142.425 13.0447C143.436 12.5901 144.6 12.3621 145.914 12.3621ZM145.914 14.7996C145.203 14.7996 144.529 14.9406 143.894 15.2224C143.259 15.5042 142.704 15.9162 142.23 16.4568C141.757 16.9983 141.384 17.6635 141.116 18.4539C140.846 19.2443 140.713 20.1495 140.713 21.1668C140.713 22.1839 140.846 23.0893 141.116 23.8787C141.385 24.669 141.758 25.3297 142.23 25.8601C142.704 26.3908 143.259 26.798 143.894 27.0789C144.529 27.3606 145.203 27.5007 145.914 27.5007C146.624 27.5007 147.298 27.3606 147.935 27.0789C148.569 26.798 149.124 26.3908 149.598 25.8601C150.071 25.3297 150.442 24.6689 150.711 23.8787C150.981 23.0883 151.115 22.1839 151.115 21.1668C151.115 20.1495 150.98 19.2443 150.711 18.4539C150.442 17.6636 150.071 16.9982 149.598 16.4568C149.124 15.9162 148.569 15.5042 147.935 15.2224C147.298 14.9416 146.624 14.7996 145.914 14.7996Z" fill="#274CFF"/>
<path d="M197.514 12.3621C198.46 12.3621 199.35 12.476 200.18 12.7029C201.008 12.9308 201.74 13.2829 202.377 13.7586C203.011 14.2352 203.535 14.8358 203.943 15.5613C204.352 16.2867 204.611 17.148 204.719 18.1433H201.875C201.66 17.0821 201.209 16.2592 200.52 15.6736L200.519 15.6765C199.828 15.0918 198.902 14.7986 197.738 14.7986C196.748 14.7986 195.918 14.9825 195.251 15.3513C194.583 15.7201 194.051 16.2067 193.651 16.8132C193.253 17.4198 192.968 18.1185 192.796 18.9089C192.623 19.6993 192.538 20.5167 192.538 21.3611C192.538 22.1406 192.63 22.8991 192.812 23.6345C192.995 24.3713 193.28 25.0267 193.668 25.6004C194.056 26.1747 194.562 26.6345 195.187 26.9812C195.81 27.328 196.555 27.5007 197.416 27.5007C198.773 27.5007 199.834 27.1428 200.599 26.4285C201.363 25.7139 201.831 24.7069 202.005 23.408H204.814C204.513 25.4865 203.743 27.0903 202.505 28.2156C201.266 29.3417 199.581 29.9041 197.448 29.9041C196.177 29.904 195.051 29.6984 194.071 29.2869C193.093 28.8762 192.273 28.2904 191.615 27.533C190.959 26.7756 190.464 25.871 190.131 24.8211C189.797 23.7708 189.63 22.6172 189.63 21.3611C189.63 20.105 189.791 18.9309 190.114 17.8367C190.438 16.7435 190.927 15.7898 191.584 14.9773C192.242 14.165 193.065 13.527 194.057 13.0613C195.047 12.5957 196.199 12.3621 197.514 12.3621Z" fill="#274CFF"/>
<path d="M212.926 12.3621C213.873 12.3621 214.747 12.4433 215.543 12.6062C216.34 12.7691 217.047 13.0502 217.659 13.4509C218.274 13.8517 218.762 14.3935 219.129 15.075C219.494 15.7574 219.711 16.6066 219.775 17.6248H217.029C216.985 17.0843 216.847 16.6337 216.609 16.2771C216.372 15.9194 216.07 15.6317 215.704 15.4158C215.338 15.2001 214.933 15.0429 214.492 14.9461C214.051 14.8482 213.603 14.7996 213.151 14.7996C212.742 14.7996 212.327 14.8323 211.908 14.8972C211.488 14.9622 211.105 15.0762 210.761 15.2381C210.416 15.401 210.136 15.6177 209.922 15.8884C209.706 16.1592 209.598 16.5105 209.598 16.9431C209.598 17.4197 209.766 17.8159 210.1 18.1297C210.434 18.4432 210.858 18.7032 211.375 18.9089C211.892 19.1147 212.474 19.2876 213.12 19.4285C213.766 19.5694 214.412 19.7161 215.059 19.867C215.746 20.0189 216.42 20.2028 217.078 20.4197C217.734 20.6364 218.316 20.9235 218.821 21.28C219.328 21.6378 219.738 22.088 220.05 22.6287C220.362 23.1702 220.518 23.842 220.518 24.6423C220.518 25.6607 220.308 26.5051 219.888 27.1765C219.468 27.8479 218.918 28.3899 218.239 28.8006C217.561 29.2122 216.796 29.4991 215.945 29.6609C215.094 29.8229 214.249 29.9041 213.409 29.9041C212.483 29.9041 211.6 29.8062 210.76 29.6111C209.919 29.4162 209.175 29.0969 208.529 28.6531C207.883 28.2095 207.366 27.6247 206.979 26.8992C206.591 26.1738 206.376 25.2915 206.333 24.2527H209.08C209.1 24.8592 209.24 25.373 209.5 25.7957C209.758 26.2182 210.098 26.5538 210.519 26.8025C210.939 27.0513 211.413 27.2299 211.939 27.3377C212.467 27.4467 213.012 27.5007 213.572 27.5007C214.003 27.5007 214.455 27.4681 214.93 27.4031C215.402 27.3381 215.838 27.2194 216.237 27.0457C216.637 26.8727 216.964 26.6178 217.224 26.282C217.482 25.9462 217.611 25.5183 217.611 24.9988C217.611 24.2843 217.343 23.7424 216.804 23.3748C216.265 23.0069 215.591 22.7091 214.783 22.4812C213.975 22.2534 213.098 22.0489 212.15 21.864C211.202 21.6801 210.324 21.4205 209.518 21.0847C208.71 20.749 208.037 20.2783 207.498 19.6716C206.959 19.0662 206.69 18.2206 206.69 17.1375C206.69 16.2931 206.878 15.5672 207.256 14.9607C207.632 14.3552 208.118 13.8609 208.71 13.4822C209.302 13.1035 209.971 12.8223 210.712 12.6384C211.456 12.4546 212.194 12.3621 212.926 12.3621Z" fill="#274CFF"/>
<path d="M47.4316 6.09352C47.6899 6.09352 47.9864 6.11598 48.3203 6.15895C48.6542 6.20291 48.9507 6.26737 49.209 6.35329V8.75758C48.9714 8.67165 48.7129 8.61184 48.4336 8.57887C48.1534 8.54591 47.8949 8.53004 47.6582 8.53004C46.9904 8.53007 46.4732 8.65989 46.1074 8.91969C45.7408 9.17957 45.5576 9.67847 45.5576 10.4138V12.7537H48.79V15.1892H45.5576V29.5476H42.8115V15.1892H40.001L40 15.1882V12.7527H42.8105V10.2507C42.8106 8.88677 43.2041 7.85265 43.9912 7.14918C44.7775 6.44578 45.924 6.09355 47.4316 6.09352Z" fill="#274CFF"/>
<path d="M129.306 12.3621C130.403 12.3621 131.32 12.5144 132.052 12.8172C132.785 13.1209 133.376 13.5422 133.829 14.0838C134.281 14.6253 134.599 15.2709 134.782 16.0173C134.965 16.7646 135.057 17.5927 135.057 18.5017V29.5476H132.31V18.1775C132.31 17.1383 132.008 16.3143 131.405 15.7078C130.802 15.1024 129.973 14.7986 128.918 14.7986C128.078 14.7986 127.35 14.9284 126.736 15.1882C126.123 15.4481 125.611 15.8171 125.202 16.2927C124.793 16.7694 124.485 17.3271 124.281 17.9656C124.076 18.6052 123.975 19.3029 123.975 20.0613V29.5466H121.229V12.7517H123.812V15.4158H123.878C125.019 13.3805 126.829 12.3621 129.306 12.3621Z" fill="#274CFF"/>
<path d="M186.754 29.5466H184.008V12.7527H186.754V29.5466Z" fill="#274CFF"/>
<path d="M174.638 12.3611C175.478 12.3611 176.237 12.4536 176.915 12.6375C177.595 12.8213 178.176 13.1082 178.66 13.4978C179.144 13.8875 179.521 14.3911 179.791 15.0086C180.06 15.6261 180.194 16.3677 180.194 17.2341V29.5457H177.448V18.533C177.448 18.0134 177.406 17.5257 177.319 17.0711C177.233 16.6163 177.071 16.2212 176.834 15.8845C176.597 15.5488 176.268 15.2845 175.848 15.0896C175.427 14.8948 174.884 14.7966 174.216 14.7966C172.86 14.7967 171.793 15.1864 171.018 15.9656C170.242 16.745 169.854 17.7847 169.854 19.0847V29.5447H167.108V18.532C167.108 17.9914 167.059 17.4924 166.963 17.0379C166.866 16.5832 166.698 16.1889 166.462 15.8523C166.225 15.5165 165.908 15.256 165.509 15.072C165.111 14.8883 164.598 14.7966 163.975 14.7966C163.178 14.7967 162.493 14.9593 161.923 15.2839C161.353 15.6086 160.889 15.9991 160.534 16.4539C160.178 16.9085 159.92 17.3793 159.758 17.867C159.597 18.3544 159.516 18.76 159.516 19.0847V29.5447H156.77V12.7517H159.354V15.2214H159.419C160.669 13.3157 162.467 12.3621 164.815 12.3621C165.849 12.3621 166.786 12.5789 167.626 13.0115C168.465 13.4452 169.058 14.1812 169.404 15.2205C169.963 14.3113 170.7 13.6078 171.616 13.1091C172.532 12.6115 173.54 12.3611 174.638 12.3611Z" fill="#274CFF"/>
<path d="M19.1592 16.074C19.6358 16.5506 19.8745 16.7895 19.9639 17.0642C20.0424 17.3059 20.0423 17.5667 19.9639 17.8084C19.8745 18.0832 19.6359 18.3219 19.1592 18.7986L10.291 27.6668L7.15723 24.533L13.5732 18.1179C13.8116 17.8796 13.9309 17.7603 13.9756 17.6228C14.0148 17.502 14.0148 17.3716 13.9756 17.2507C13.9309 17.1133 13.8115 16.9939 13.5732 16.7556L7.09668 10.2791L10.2305 7.14625L19.1592 16.074Z" fill="#274CFF"/>
<path d="M8.25195 16.7556C8.49031 16.994 8.60964 17.1133 8.6543 17.2507C8.69354 17.3716 8.69356 17.502 8.6543 17.6228C8.60962 17.7602 8.49028 17.8796 8.25195 18.1179L4.49707 21.8728L0 17.3767L4.43652 12.9402L8.25195 16.7556Z" fill="#274CFF"/>
<path d="M186.754 9.73121H184.008V6.35231H186.754V9.73121Z" fill="#274CFF"/>
</svg>
